<svg width="302" height="108" viewBox="0 0 302 108" fill="none" xmlns="http://www.w3.org/2000/svg">
<g filter="url(#filter0_d_0_1)">
<path d="M138.216 90H114.744V39.6H120.432V84.528H138.216V90ZM159.094 90H153.406V46.008L147.79 51.624L143.974 47.808L152.326 39.6H159.094V90ZM203.305 90H195.385L171.265 46.152V89.928H165.577V39.528H173.929L197.617 82.872V39.528H203.305V90ZM249.89 64.656C249.89 68.16 249.242 71.448 247.946 74.52C246.698 77.544 244.946 80.232 242.69 82.584C240.434 84.888 237.818 86.712 234.842 88.056C231.866 89.352 228.65 90 225.194 90H210.506V39.384H225.194C228.65 39.384 231.866 40.056 234.842 41.4C237.866 42.696 240.506 44.52 242.762 46.872C245.018 49.176 246.77 51.864 248.018 54.936C249.266 57.96 249.89 61.2 249.89 64.656ZM244.058 64.656C244.058 61.008 243.218 57.696 241.538 54.72C239.906 51.744 237.674 49.368 234.842 47.592C232.01 45.816 228.794 44.928 225.194 44.928H216.266V84.384H225.194C228.794 84.384 232.01 83.496 234.842 81.72C237.674 79.896 239.906 77.496 241.538 74.52C243.218 71.496 244.058 68.208 244.058 64.656ZM277.158 91.08C273.126 91.08 269.55 90.48 266.43 89.28C263.358 88.032 260.934 86.304 259.158 84.096C257.43 81.888 256.566 79.368 256.566 76.536C256.566 73.656 257.598 71.112 259.662 68.904C261.774 66.696 264.606 65.136 268.158 64.224C265.998 63.552 264.126 62.664 262.542 61.56C260.958 60.408 259.71 59.088 258.798 57.6C257.934 56.064 257.502 54.384 257.502 52.56C257.502 49.92 258.342 47.544 260.022 45.432C261.702 43.32 264.006 41.688 266.934 40.536C269.91 39.336 273.318 38.736 277.158 38.736C280.95 38.736 284.31 39.336 287.238 40.536C290.214 41.688 292.542 43.32 294.222 45.432C295.902 47.544 296.742 49.92 296.742 52.56C296.742 54.384 296.286 56.064 295.374 57.6C294.51 59.136 293.286 60.456 291.702 61.56C290.118 62.664 288.27 63.552 286.158 64.224C289.71 65.136 292.518 66.696 294.582 68.904C296.694 71.112 297.75 73.656 297.75 76.536C297.75 79.368 296.862 81.888 295.086 84.096C293.358 86.304 290.934 88.032 287.814 89.28C284.694 90.48 281.142 91.08 277.158 91.08ZM277.158 86.04C279.846 86.04 282.27 85.608 284.43 84.744C286.59 83.832 288.27 82.56 289.47 80.928C290.718 79.296 291.342 77.472 291.342 75.456C291.342 73.44 290.718 71.64 289.47 70.056C288.27 68.472 286.59 67.248 284.43 66.384C282.27 65.472 279.846 65.016 277.158 65.016C274.422 65.016 271.974 65.472 269.814 66.384C267.654 67.248 265.95 68.472 264.702 70.056C263.502 71.64 262.902 73.44 262.902 75.456C262.902 77.472 263.502 79.296 264.702 80.928C265.95 82.56 267.654 83.832 269.814 84.744C271.974 85.608 274.422 86.04 277.158 86.04ZM277.158 63.576C279.702 63.576 282.006 63.144 284.07 62.28C286.134 61.416 287.718 60.24 288.822 58.752C289.974 57.264 290.55 55.56 290.55 53.64C290.55 51.72 289.974 50.016 288.822 48.528C287.718 47.04 286.134 45.864 284.07 45C282.006 44.136 279.702 43.704 277.158 43.704C274.566 43.704 272.238 44.136 270.174 45C268.158 45.864 266.574 47.04 265.422 48.528C264.27 50.016 263.694 51.72 263.694 53.64C263.694 55.56 264.27 57.264 265.422 58.752C266.574 60.24 268.158 61.416 270.174 62.28C272.238 63.144 274.566 63.576 277.158 63.576Z" fill="white"/>
</g>
<g filter="url(#filter1_d_0_1)">
<path d="M60.4611 96L32 36.2786C32 36.2786 60.4611 -5.43859 72.086 5.97875C83.711 17.3961 60.4611 54.722 60.4611 54.722C76.8963 49.8916 142.237 45.9394 78.9006 90.7305" stroke="#FF0000" stroke-width="7" stroke-linecap="round"/>
</g>
<path d="M23.488 47L3 98.8261L46.5 98.8261" stroke="#FF0000" stroke-width="3" stroke-linecap="round"/>
<defs>
<filter id="filter0_d_0_1" x="110.744" y="38.736" width="191.006" height="60.344" filterUnits="userSpaceOnUse" color-interpolation-filters="sRGB">
<feFlood flood-opacity="0" result="BackgroundImageFix"/>
<feColorMatrix in="SourceAlpha" type="matrix" values="0 0 0 0 0 0 0 0 0 0 0 0 0 0 0 0 0 0 127 0" result="hardAlpha"/>
<feOffset dy="4"/>
<feGaussianBlur stdDeviation="2"/>
<feComposite in2="hardAlpha" operator="out"/>
<feColorMatrix type="matrix" values="0 0 0 0 0 0 0 0 0 0 0 0 0 0 0 0 0 0 0.25 0"/>
<feBlend mode="normal" in2="BackgroundImageFix" result="effect1_dropShadow_0_1"/>
<feBlend mode="normal" in="SourceGraphic" in2="effect1_dropShadow_0_1" result="shape"/>
</filter>
<filter id="filter1_d_0_1" x="23.9749" y="0.500031" width="89.5253" height="107.001" filterUnits="userSpaceOnUse" color-interpolation-filters="sRGB">
<feFlood flood-opacity="0" result="BackgroundImageFix"/>
<feColorMatrix in="SourceAlpha" type="matrix" values="0 0 0 0 0 0 0 0 0 0 0 0 0 0 0 0 0 0 127 0" result="hardAlpha"/>
<feOffset dy="4"/>
<feGaussianBlur stdDeviation="2"/>
<feComposite in2="hardAlpha" operator="out"/>
<feColorMatrix type="matrix" values="0 0 0 0 0 0 0 0 0 0 0 0 0 0 0 0 0 0 0.25 0"/>
<feBlend mode="normal" in2="BackgroundImageFix" result="effect1_dropShadow_0_1"/>
<feBlend mode="normal" in="SourceGraphic" in2="effect1_dropShadow_0_1" result="shape"/>
</filter>
</defs>
</svg>