<svg width="279" height="108" viewBox="0 0 279 108" fill="none" xmlns="http://www.w3.org/2000/svg">
<g filter="url(#filter0_d_0_1)">
<path d="M115.216 90H91.744V39.6H97.432V84.528H115.216V90ZM136.094 90H130.406V46.008L124.79 51.624L120.974 47.808L129.326 39.6H136.094V90ZM180.305 90H172.385L148.265 46.152V89.928H142.577V39.528H150.929L174.617 82.872V39.528H180.305V90ZM226.89 64.656C226.89 68.16 226.242 71.448 224.946 74.52C223.698 77.544 221.946 80.232 219.69 82.584C217.434 84.888 214.818 86.712 211.842 88.056C208.866 89.352 205.65 90 202.194 90H187.506V39.384H202.194C205.65 39.384 208.866 40.056 211.842 41.4C214.866 42.696 217.506 44.52 219.762 46.872C222.018 49.176 223.77 51.864 225.018 54.936C226.266 57.96 226.89 61.2 226.89 64.656ZM221.058 64.656C221.058 61.008 220.218 57.696 218.538 54.72C216.906 51.744 214.674 49.368 211.842 47.592C209.01 45.816 205.794 44.928 202.194 44.928H193.266V84.384H202.194C205.794 84.384 209.01 83.496 211.842 81.72C214.674 79.896 216.906 77.496 218.538 74.52C220.218 71.496 221.058 68.208 221.058 64.656ZM254.158 91.08C250.126 91.08 246.55 90.48 243.43 89.28C240.358 88.032 237.934 86.304 236.158 84.096C234.43 81.888 233.566 79.368 233.566 76.536C233.566 73.656 234.598 71.112 236.662 68.904C238.774 66.696 241.606 65.136 245.158 64.224C242.998 63.552 241.126 62.664 239.542 61.56C237.958 60.408 236.71 59.088 235.798 57.6C234.934 56.064 234.502 54.384 234.502 52.56C234.502 49.92 235.342 47.544 237.022 45.432C238.702 43.32 241.006 41.688 243.934 40.536C246.91 39.336 250.318 38.736 254.158 38.736C257.95 38.736 261.31 39.336 264.238 40.536C267.214 41.688 269.542 43.32 271.222 45.432C272.902 47.544 273.742 49.92 273.742 52.56C273.742 54.384 273.286 56.064 272.374 57.6C271.51 59.136 270.286 60.456 268.702 61.56C267.118 62.664 265.27 63.552 263.158 64.224C266.71 65.136 269.518 66.696 271.582 68.904C273.694 71.112 274.75 73.656 274.75 76.536C274.75 79.368 273.862 81.888 272.086 84.096C270.358 86.304 267.934 88.032 264.814 89.28C261.694 90.48 258.142 91.08 254.158 91.08ZM254.158 86.04C256.846 86.04 259.27 85.608 261.43 84.744C263.59 83.832 265.27 82.56 266.47 80.928C267.718 79.296 268.342 77.472 268.342 75.456C268.342 73.44 267.718 71.64 266.47 70.056C265.27 68.472 263.59 67.248 261.43 66.384C259.27 65.472 256.846 65.016 254.158 65.016C251.422 65.016 248.974 65.472 246.814 66.384C244.654 67.248 242.95 68.472 241.702 70.056C240.502 71.64 239.902 73.44 239.902 75.456C239.902 77.472 240.502 79.296 241.702 80.928C242.95 82.56 244.654 83.832 246.814 84.744C248.974 85.608 251.422 86.04 254.158 86.04ZM254.158 63.576C256.702 63.576 259.006 63.144 261.07 62.28C263.134 61.416 264.718 60.24 265.822 58.752C266.974 57.264 267.55 55.56 267.55 53.64C267.55 51.72 266.974 50.016 265.822 48.528C264.718 47.04 263.134 45.864 261.07 45C259.006 44.136 256.702 43.704 254.158 43.704C251.566 43.704 249.238 44.136 247.174 45C245.158 45.864 243.574 47.04 242.422 48.528C241.27 50.016 240.694 51.72 240.694 53.64C240.694 55.56 241.27 57.264 242.422 58.752C243.574 60.24 245.158 61.416 247.174 62.28C249.238 63.144 251.566 63.576 254.158 63.576Z" fill="white"/>
</g>
<g filter="url(#filter1_d_0_1)">
<path d="M37.4611 96L9 36.2786C9 36.2786 37.4611 -5.43859 49.086 5.97875C60.711 17.3961 37.4611 54.722 37.4611 54.722C53.8963 49.8916 119.237 45.9394 55.9006 90.7305" stroke="#FF0000" stroke-width="7" stroke-linecap="round"/>
</g>
<defs>
<filter id="filter0_d_0_1" x="87.744" y="38.736" width="191.006" height="60.344" filterUnits="userSpaceOnUse" color-interpolation-filters="sRGB">
<feFlood flood-opacity="0" result="BackgroundImageFix"/>
<feColorMatrix in="SourceAlpha" type="matrix" values="0 0 0 0 0 0 0 0 0 0 0 0 0 0 0 0 0 0 127 0" result="hardAlpha"/>
<feOffset dy="4"/>
<feGaussianBlur stdDeviation="2"/>
<feComposite in2="hardAlpha" operator="out"/>
<feColorMatrix type="matrix" values="0 0 0 0 0 0 0 0 0 0 0 0 0 0 0 0 0 0 0.25 0"/>
<feBlend mode="normal" in2="BackgroundImageFix" result="effect1_dropShadow_0_1"/>
<feBlend mode="normal" in="SourceGraphic" in2="effect1_dropShadow_0_1" result="shape"/>
</filter>
<filter id="filter1_d_0_1" x="0.974884" y="0.500031" width="89.5253" height="107.001" filterUnits="userSpaceOnUse" color-interpolation-filters="sRGB">
<feFlood flood-opacity="0" result="BackgroundImageFix"/>
<feColorMatrix in="SourceAlpha" type="matrix" values="0 0 0 0 0 0 0 0 0 0 0 0 0 0 0 0 0 0 127 0" result="hardAlpha"/>
<feOffset dy="4"/>
<feGaussianBlur stdDeviation="2"/>
<feComposite in2="hardAlpha" operator="out"/>
<feColorMatrix type="matrix" values="0 0 0 0 0 0 0 0 0 0 0 0 0 0 0 0 0 0 0.25 0"/>
<feBlend mode="normal" in2="BackgroundImageFix" result="effect1_dropShadow_0_1"/>
<feBlend mode="normal" in="SourceGraphic" in2="effect1_dropShadow_0_1" result="shape"/>
</filter>
</defs>
</svg>
