<svg width="302" height="138" viewBox="0 0 302 138" fill="none" xmlns="http://www.w3.org/2000/svg">
<path d="M61.8736 123.095C63.2487 124.47 63.9363 126.436 63.9363 128.992C63.9363 131.548 63.2204 133.522 61.7887 134.913C60.365 136.304 58.3064 137 55.6127 137H51.1962V121.032H56.0859C58.5693 121.032 60.4985 121.72 61.8736 123.095ZM55.3094 135.398C57.5177 135.398 59.18 134.856 60.2963 133.772C61.4125 132.68 61.9707 131.083 61.9707 128.98C61.9707 126.869 61.4489 125.287 60.4055 124.236C59.362 123.176 57.8089 122.646 55.7462 122.646H53.0526V135.398H55.3094ZM68.0304 126.444C69.0173 125.36 70.36 124.818 72.0587 124.818C73.7574 124.818 75.1002 125.376 76.087 126.492C77.0739 127.601 77.5673 129.117 77.5673 131.042C77.5673 132.96 77.0739 134.472 76.087 135.58C75.1002 136.672 73.7453 137.218 72.0223 137.218C70.3964 137.235 69.0739 136.672 68.0547 135.532C67.0355 134.391 66.538 132.883 66.5622 131.006C66.5622 129.049 67.0516 127.528 68.0304 126.444ZM72.0344 126.359C69.6401 126.359 68.4429 127.908 68.4429 131.006C68.4429 132.535 68.7463 133.7 69.3529 134.501C69.9677 135.301 70.8696 135.702 72.0587 135.702C73.2478 135.702 74.1497 135.305 74.7645 134.513C75.3792 133.712 75.6866 132.547 75.6866 131.018C75.6866 129.481 75.3792 128.321 74.7645 127.536C74.1497 126.751 73.2397 126.359 72.0344 126.359ZM90.7397 137H88.9197V129.259C88.9197 128.272 88.6972 127.544 88.2523 127.075C87.8074 126.598 87.1158 126.359 86.1775 126.359C84.9237 126.359 84.0056 126.699 83.4232 127.378C82.8408 128.05 82.5496 129.166 82.5496 130.727V137H80.7296V125.036H82.2099L82.5011 126.674H82.586C82.9581 126.092 83.4798 125.639 84.1512 125.315C84.8226 124.984 85.5708 124.818 86.3959 124.818C87.8519 124.818 88.9399 125.17 89.6598 125.874C90.3797 126.577 90.7397 127.686 90.7397 129.198V137ZM97.5533 121.275C97.0923 122.974 96.4451 124.717 95.612 126.505H94.2773C94.795 124.385 95.1671 122.561 95.3936 121.032H97.3835L97.5533 121.275ZM103.355 133.481C103.355 134.201 103.521 134.755 103.852 135.144C104.192 135.532 104.653 135.726 105.236 135.726C105.826 135.726 106.384 135.653 106.91 135.508V136.891C106.724 136.98 106.429 137.057 106.024 137.121C105.628 137.186 105.288 137.218 105.005 137.218C102.692 137.218 101.535 136.001 101.535 133.566V126.444H99.8241V125.57L101.535 124.818L102.299 122.258H103.355V125.036H106.825V126.444H103.355V133.481ZM127.672 137H125.525L123.329 129.975C123.167 129.457 122.908 128.482 122.552 127.051H122.467C122.176 128.329 121.921 129.311 121.703 129.999L119.446 137H117.347L114.083 125.036H115.976C116.898 128.604 117.521 131.03 117.844 132.316C118.176 133.603 118.374 134.525 118.439 135.083H118.524C118.629 134.565 118.77 133.975 118.948 133.311C119.134 132.648 119.276 132.179 119.373 131.904L121.569 125.036H123.535L125.67 131.904C126.083 133.15 126.362 134.201 126.508 135.059H126.593C126.633 134.751 126.742 134.221 126.92 133.469C127.098 132.709 127.826 129.898 129.104 125.036H130.985L127.672 137ZM134.155 121.833C135.012 121.146 136.165 120.802 137.613 120.802C139.061 120.802 140.21 121.142 141.059 121.821C141.908 122.501 142.333 123.435 142.333 124.624C142.333 126.234 141.31 127.54 139.263 128.543C140.541 129.15 141.455 129.801 142.005 130.496C142.564 131.184 142.843 131.973 142.843 132.862C142.843 134.197 142.382 135.257 141.459 136.041C140.545 136.826 139.255 137.218 137.589 137.218C135.931 137.218 134.644 136.846 133.73 136.102C132.816 135.358 132.359 134.298 132.359 132.923C132.359 131.095 133.472 129.671 135.696 128.652C134.717 128.102 134.001 127.499 133.548 126.844C133.103 126.181 132.881 125.437 132.881 124.612C132.881 123.455 133.306 122.529 134.155 121.833ZM139.882 126.456C140.327 125.954 140.549 125.352 140.549 124.648C140.549 123.936 140.282 123.366 139.749 122.937C139.223 122.501 138.503 122.282 137.589 122.282C136.675 122.282 135.955 122.501 135.429 122.937C134.911 123.366 134.653 123.932 134.653 124.636C134.653 125.34 134.867 125.93 135.296 126.407C135.732 126.885 136.529 127.366 137.686 127.851C138.713 127.423 139.445 126.958 139.882 126.456ZM134.871 130.945C134.386 131.512 134.143 132.211 134.143 133.044C134.143 133.87 134.446 134.529 135.053 135.022C135.66 135.508 136.509 135.75 137.601 135.75C138.693 135.75 139.542 135.499 140.149 134.998C140.756 134.488 141.059 133.785 141.059 132.887C141.059 132.183 140.772 131.556 140.198 131.006C139.623 130.456 138.636 129.922 137.237 129.404C136.153 129.866 135.364 130.379 134.871 130.945ZM154.332 133.481C154.332 134.201 154.497 134.755 154.829 135.144C155.169 135.532 155.63 135.726 156.212 135.726C156.803 135.726 157.361 135.653 157.887 135.508V136.891C157.701 136.98 157.405 137.057 157.001 137.121C156.605 137.186 156.265 137.218 155.982 137.218C153.668 137.218 152.511 136.001 152.511 133.566V126.444H150.801V125.57L152.511 124.818L153.276 122.258H154.332V125.036H157.802V126.444H154.332V133.481ZM161.077 126.444C162.064 125.36 163.407 124.818 165.106 124.818C166.804 124.818 168.147 125.376 169.134 126.492C170.121 127.601 170.614 129.117 170.614 131.042C170.614 132.96 170.121 134.472 169.134 135.58C168.147 136.672 166.792 137.218 165.069 137.218C163.443 137.235 162.121 136.672 161.102 135.532C160.082 134.391 159.585 132.883 159.609 131.006C159.609 129.049 160.099 127.528 161.077 126.444ZM165.081 126.359C162.687 126.359 161.49 127.908 161.49 131.006C161.49 132.535 161.793 133.7 162.4 134.501C163.015 135.301 163.917 135.702 165.106 135.702C166.295 135.702 167.197 135.305 167.811 134.513C168.426 133.712 168.733 132.547 168.733 131.018C168.733 129.481 168.426 128.321 167.811 127.536C167.197 126.751 166.287 126.359 165.081 126.359ZM185.621 125.036V126.444H182.576V137H180.756V126.444H178.62V125.619L180.756 124.964V124.296C180.756 121.36 182.042 119.892 184.614 119.892C185.253 119.892 185.997 120.017 186.847 120.268L186.373 121.724C185.694 121.497 185.095 121.384 184.578 121.384C183.89 121.384 183.385 121.615 183.061 122.076C182.737 122.537 182.576 123.265 182.576 124.26V125.036H185.621ZM189.502 122.695C189.3 122.897 189.041 122.998 188.726 122.998C188.41 122.998 188.155 122.897 187.961 122.695C187.767 122.484 187.67 122.181 187.67 121.785C187.67 121.388 187.767 121.089 187.961 120.887C188.155 120.685 188.41 120.583 188.726 120.583C189.041 120.583 189.3 120.689 189.502 120.899C189.704 121.101 189.805 121.4 189.805 121.797C189.805 122.185 189.704 122.484 189.502 122.695ZM189.636 125.036V137H187.816V125.036H189.636ZM203.474 137H201.654V129.259C201.654 128.272 201.432 127.544 200.987 127.075C200.542 126.598 199.85 126.359 198.912 126.359C197.658 126.359 196.74 126.699 196.158 127.378C195.575 128.05 195.284 129.166 195.284 130.727V137H193.464V125.036H194.944L195.235 126.674H195.32C195.692 126.092 196.214 125.639 196.886 125.315C197.557 124.984 198.305 124.818 199.13 124.818C200.586 124.818 201.674 125.17 202.394 125.874C203.114 126.577 203.474 127.686 203.474 129.198V137ZM209.261 127.572C208.695 128.389 208.412 129.558 208.412 131.079C208.412 132.6 208.691 133.752 209.249 134.537C209.815 135.313 210.64 135.702 211.724 135.702C212.962 135.702 213.86 135.366 214.418 134.695C214.976 134.015 215.255 132.927 215.255 131.431V131.055C215.255 129.348 214.972 128.134 214.406 127.415C213.839 126.695 212.937 126.335 211.7 126.335C210.64 126.335 209.827 126.747 209.261 127.572ZM215.255 135.398C214.414 136.612 213.184 137.218 211.566 137.218C209.957 137.218 208.715 136.685 207.841 135.617C206.968 134.533 206.531 133.008 206.531 131.042C206.531 129.077 206.968 127.548 207.841 126.456C208.715 125.364 209.949 124.818 211.542 124.818C213.144 124.818 214.373 125.404 215.231 126.577H215.376L215.291 125.716L215.255 124.879V120.013H217.063V137H215.595L215.352 135.398H215.255ZM229.139 126.505H227.125L226.991 126.262C227.137 125.671 227.384 124.891 227.732 123.92C228.079 122.941 228.476 121.979 228.921 121.032H230.267C229.782 122.893 229.406 124.717 229.139 126.505ZM234.284 121.032C233.79 122.925 233.418 124.749 233.167 126.505H231.153L230.995 126.262C231.384 124.757 232.031 123.014 232.937 121.032H234.284ZM240.347 133.481C240.347 134.201 240.513 134.755 240.845 135.144C241.184 135.532 241.645 135.726 242.228 135.726C242.818 135.726 243.376 135.653 243.902 135.508V136.891C243.716 136.98 243.421 137.057 243.017 137.121C242.62 137.186 242.28 137.218 241.997 137.218C239.684 137.218 238.527 136.001 238.527 133.566V126.444H236.816V125.57L238.527 124.818L239.292 122.258H240.347V125.036H243.817V126.444H240.347V133.481ZM256.302 137H254.482V129.259C254.482 128.272 254.26 127.544 253.815 127.075C253.37 126.598 252.678 126.359 251.74 126.359C250.47 126.359 249.548 126.703 248.974 127.39C248.399 128.078 248.112 129.194 248.112 130.739V137H246.292V120.013H248.112V125.158C248.112 125.805 248.084 126.314 248.027 126.687H248.136C248.5 126.104 249.01 125.651 249.665 125.328C250.328 124.996 251.077 124.83 251.91 124.83C253.39 124.83 254.49 125.182 255.21 125.886C255.938 126.589 256.302 127.694 256.302 129.198V137ZM265.086 137.218C263.315 137.218 261.915 136.68 260.888 135.605C259.869 134.529 259.359 133.028 259.359 131.103C259.359 129.178 259.832 127.649 260.779 126.517C261.741 125.384 262.995 124.818 264.54 124.818C266.093 124.818 267.307 125.311 268.18 126.298C269.054 127.285 269.491 128.583 269.491 130.193V131.346H261.24C261.28 132.745 261.636 133.813 262.308 134.549C262.979 135.277 263.946 135.641 265.207 135.641C266.477 135.641 267.731 135.37 268.969 134.828V136.442C268.346 136.717 267.743 136.915 267.161 137.036C266.579 137.158 265.887 137.218 265.086 137.218ZM267.549 129.866C267.549 128.725 267.294 127.851 266.785 127.245C266.275 126.638 265.543 126.335 264.589 126.335C263.642 126.335 262.878 126.646 262.295 127.269C261.721 127.892 261.385 128.757 261.288 129.866H267.549ZM284.896 121.032V137H283.136V125.619C283.136 124.616 283.165 123.722 283.221 122.937C283.067 123.091 282.89 123.257 282.687 123.435C282.485 123.605 281.624 124.308 280.103 125.546L279.144 124.296L283.367 121.032H284.896ZM295.836 126.505C296.443 124.07 296.823 122.246 296.977 121.032H298.966L299.124 121.275C298.655 123.014 298.012 124.757 297.195 126.505H295.836ZM295.108 121.275C294.647 122.974 294 124.717 293.167 126.505H291.832C292.35 124.385 292.722 122.561 292.948 121.032H294.938L295.108 121.275Z" fill="white"/>
<g filter="url(#filter0_d_0_1)">
<path d="M138.216 90H114.744V39.6H120.432V84.528H138.216V90ZM159.094 90H153.406V46.008L147.79 51.624L143.974 47.808L152.326 39.6H159.094V90ZM203.305 90H195.385L171.265 46.152V89.928H165.577V39.528H173.929L197.617 82.872V39.528H203.305V90ZM249.89 64.656C249.89 68.16 249.242 71.448 247.946 74.52C246.698 77.544 244.946 80.232 242.69 82.584C240.434 84.888 237.818 86.712 234.842 88.056C231.866 89.352 228.65 90 225.194 90H210.506V39.384H225.194C228.65 39.384 231.866 40.056 234.842 41.4C237.866 42.696 240.506 44.52 242.762 46.872C245.018 49.176 246.77 51.864 248.018 54.936C249.266 57.96 249.89 61.2 249.89 64.656ZM244.058 64.656C244.058 61.008 243.218 57.696 241.538 54.72C239.906 51.744 237.674 49.368 234.842 47.592C232.01 45.816 228.794 44.928 225.194 44.928H216.266V84.384H225.194C228.794 84.384 232.01 83.496 234.842 81.72C237.674 79.896 239.906 77.496 241.538 74.52C243.218 71.496 244.058 68.208 244.058 64.656ZM277.158 91.08C273.126 91.08 269.55 90.48 266.43 89.28C263.358 88.032 260.934 86.304 259.158 84.096C257.43 81.888 256.566 79.368 256.566 76.536C256.566 73.656 257.598 71.112 259.662 68.904C261.774 66.696 264.606 65.136 268.158 64.224C265.998 63.552 264.126 62.664 262.542 61.56C260.958 60.408 259.71 59.088 258.798 57.6C257.934 56.064 257.502 54.384 257.502 52.56C257.502 49.92 258.342 47.544 260.022 45.432C261.702 43.32 264.006 41.688 266.934 40.536C269.91 39.336 273.318 38.736 277.158 38.736C280.95 38.736 284.31 39.336 287.238 40.536C290.214 41.688 292.542 43.32 294.222 45.432C295.902 47.544 296.742 49.92 296.742 52.56C296.742 54.384 296.286 56.064 295.374 57.6C294.51 59.136 293.286 60.456 291.702 61.56C290.118 62.664 288.27 63.552 286.158 64.224C289.71 65.136 292.518 66.696 294.582 68.904C296.694 71.112 297.75 73.656 297.75 76.536C297.75 79.368 296.862 81.888 295.086 84.096C293.358 86.304 290.934 88.032 287.814 89.28C284.694 90.48 281.142 91.08 277.158 91.08ZM277.158 86.04C279.846 86.04 282.27 85.608 284.43 84.744C286.59 83.832 288.27 82.56 289.47 80.928C290.718 79.296 291.342 77.472 291.342 75.456C291.342 73.44 290.718 71.64 289.47 70.056C288.27 68.472 286.59 67.248 284.43 66.384C282.27 65.472 279.846 65.016 277.158 65.016C274.422 65.016 271.974 65.472 269.814 66.384C267.654 67.248 265.95 68.472 264.702 70.056C263.502 71.64 262.902 73.44 262.902 75.456C262.902 77.472 263.502 79.296 264.702 80.928C265.95 82.56 267.654 83.832 269.814 84.744C271.974 85.608 274.422 86.04 277.158 86.04ZM277.158 63.576C279.702 63.576 282.006 63.144 284.07 62.28C286.134 61.416 287.718 60.24 288.822 58.752C289.974 57.264 290.55 55.56 290.55 53.64C290.55 51.72 289.974 50.016 288.822 48.528C287.718 47.04 286.134 45.864 284.07 45C282.006 44.136 279.702 43.704 277.158 43.704C274.566 43.704 272.238 44.136 270.174 45C268.158 45.864 266.574 47.04 265.422 48.528C264.27 50.016 263.694 51.72 263.694 53.64C263.694 55.56 264.27 57.264 265.422 58.752C266.574 60.24 268.158 61.416 270.174 62.28C272.238 63.144 274.566 63.576 277.158 63.576Z" fill="white"/>
</g>
<g filter="url(#filter1_d_0_1)">
<path d="M60.4611 96L32 36.2786C32 36.2786 60.4611 -5.43859 72.086 5.97875C83.711 17.3961 60.4611 54.722 60.4611 54.722C76.8963 49.8916 142.237 45.9394 78.9006 90.7305" stroke="#FF0000" stroke-width="7" stroke-linecap="round"/>
</g>
<path d="M23.488 47L3 98.8261L46.5 98.8261" stroke="#FF0000" stroke-width="3" stroke-linecap="round"/>
<defs>
<filter id="filter0_d_0_1" x="110.744" y="38.736" width="191.006" height="60.344" filterUnits="userSpaceOnUse" color-interpolation-filters="sRGB">
<feFlood flood-opacity="0" result="BackgroundImageFix"/>
<feColorMatrix in="SourceAlpha" type="matrix" values="0 0 0 0 0 0 0 0 0 0 0 0 0 0 0 0 0 0 127 0" result="hardAlpha"/>
<feOffset dy="4"/>
<feGaussianBlur stdDeviation="2"/>
<feComposite in2="hardAlpha" operator="out"/>
<feColorMatrix type="matrix" values="0 0 0 0 0 0 0 0 0 0 0 0 0 0 0 0 0 0 0.25 0"/>
<feBlend mode="normal" in2="BackgroundImageFix" result="effect1_dropShadow_0_1"/>
<feBlend mode="normal" in="SourceGraphic" in2="effect1_dropShadow_0_1" result="shape"/>
</filter>
<filter id="filter1_d_0_1" x="23.9749" y="0.500031" width="89.5253" height="107.001" filterUnits="userSpaceOnUse" color-interpolation-filters="sRGB">
<feFlood flood-opacity="0" result="BackgroundImageFix"/>
<feColorMatrix in="SourceAlpha" type="matrix" values="0 0 0 0 0 0 0 0 0 0 0 0 0 0 0 0 0 0 127 0" result="hardAlpha"/>
<feOffset dy="4"/>
<feGaussianBlur stdDeviation="2"/>
<feComposite in2="hardAlpha" operator="out"/>
<feColorMatrix type="matrix" values="0 0 0 0 0 0 0 0 0 0 0 0 0 0 0 0 0 0 0.25 0"/>
<feBlend mode="normal" in2="BackgroundImageFix" result="effect1_dropShadow_0_1"/>
<feBlend mode="normal" in="SourceGraphic" in2="effect1_dropShadow_0_1" result="shape"/>
</filter>
</defs>
</svg>
